<mxfile host="Electron" modified="2023-12-29T11:22:24.794Z" agent="Mozilla/5.0 (Windows NT 10.0; Win64; x64) AppleWebKit/537.36 (KHTML, like Gecko) draw.io/22.1.15 Chrome/120.0.6099.109 Electron/28.1.0 Safari/537.36" etag="AiV6CmYhQgK7F9j83bJn" version="22.1.15" type="device">
  <diagram name="Page-1" id="3FU2BRUodX3esNhyQgwJ">
    <mxGraphModel dx="592" dy="407" grid="1" gridSize="10" guides="1" tooltips="1" connect="1" arrows="1" fold="1" page="1" pageScale="1" pageWidth="850" pageHeight="1100" math="0" shadow="0">
      <root>
        <mxCell id="0" />
        <mxCell id="1" parent="0" />
        <mxCell id="Rr48j6R8bM0mg8fOzwoo-1" value="内存 Memory" style="swimlane;whiteSpace=wrap;html=1;startSize=30;fillColor=#ffe6cc;strokeColor=#d79b00;" parent="1" vertex="1">
          <mxGeometry x="320" y="160" width="160" height="312" as="geometry" />
        </mxCell>
        <mxCell id="F_gYWv8rL4ZoQy9qiymJ-1" value="0x7ffccff275b7" style="rounded=0;whiteSpace=wrap;html=1;fillColor=#b1ddf0;strokeColor=#10739e;fontFamily=consolas;" vertex="1" parent="Rr48j6R8bM0mg8fOzwoo-1">
          <mxGeometry x="1" y="250" width="158" height="21" as="geometry" />
        </mxCell>
        <mxCell id="F_gYWv8rL4ZoQy9qiymJ-2" value="&lt;div&gt;0x7ffccff275b8&lt;/div&gt;" style="rounded=0;whiteSpace=wrap;html=1;fillColor=#b1ddf0;strokeColor=#10739e;fontFamily=consolas;fontStyle=1" vertex="1" parent="Rr48j6R8bM0mg8fOzwoo-1">
          <mxGeometry x="1" y="231" width="158" height="20" as="geometry" />
        </mxCell>
        <mxCell id="F_gYWv8rL4ZoQy9qiymJ-3" value="0x7ffccff275b9" style="rounded=0;whiteSpace=wrap;html=1;fillColor=#b1ddf0;strokeColor=#10739e;fontFamily=consolas;fontStyle=1" vertex="1" parent="Rr48j6R8bM0mg8fOzwoo-1">
          <mxGeometry x="1" y="211" width="158" height="20" as="geometry" />
        </mxCell>
        <mxCell id="F_gYWv8rL4ZoQy9qiymJ-4" value="0x7ffccff275ba" style="rounded=0;whiteSpace=wrap;html=1;fillColor=#b1ddf0;strokeColor=#10739e;fontFamily=consolas;fontStyle=1" vertex="1" parent="Rr48j6R8bM0mg8fOzwoo-1">
          <mxGeometry x="1" y="191" width="158" height="20" as="geometry" />
        </mxCell>
        <mxCell id="F_gYWv8rL4ZoQy9qiymJ-5" value="0x7ffccff275bb" style="rounded=0;whiteSpace=wrap;html=1;fillColor=#b1ddf0;strokeColor=#10739e;fontFamily=consolas;fontStyle=1" vertex="1" parent="Rr48j6R8bM0mg8fOzwoo-1">
          <mxGeometry x="1" y="171" width="158" height="20" as="geometry" />
        </mxCell>
        <mxCell id="F_gYWv8rL4ZoQy9qiymJ-6" value="0x7ffccff275bc" style="rounded=0;whiteSpace=wrap;html=1;fillColor=#b1ddf0;strokeColor=#10739e;fontFamily=consolas;fontStyle=1" vertex="1" parent="Rr48j6R8bM0mg8fOzwoo-1">
          <mxGeometry x="1" y="151" width="158" height="20" as="geometry" />
        </mxCell>
        <mxCell id="F_gYWv8rL4ZoQy9qiymJ-7" value="0x7ffccff275bd" style="rounded=0;whiteSpace=wrap;html=1;fillColor=#b1ddf0;strokeColor=#10739e;fontFamily=consolas;fontStyle=1" vertex="1" parent="Rr48j6R8bM0mg8fOzwoo-1">
          <mxGeometry x="1" y="131" width="158" height="20" as="geometry" />
        </mxCell>
        <mxCell id="F_gYWv8rL4ZoQy9qiymJ-8" value="0x7ffccff275be" style="rounded=0;whiteSpace=wrap;html=1;fillColor=#b1ddf0;strokeColor=#10739e;fontFamily=consolas;fontStyle=1" vertex="1" parent="Rr48j6R8bM0mg8fOzwoo-1">
          <mxGeometry x="1" y="111" width="158" height="20" as="geometry" />
        </mxCell>
        <mxCell id="F_gYWv8rL4ZoQy9qiymJ-9" value="0x7ffccff275bf" style="rounded=0;whiteSpace=wrap;html=1;fillColor=#b1ddf0;strokeColor=#10739e;fontFamily=consolas;fontStyle=1" vertex="1" parent="Rr48j6R8bM0mg8fOzwoo-1">
          <mxGeometry x="1" y="91" width="158" height="20" as="geometry" />
        </mxCell>
        <mxCell id="F_gYWv8rL4ZoQy9qiymJ-10" value="0x7ffccff275c0" style="rounded=0;whiteSpace=wrap;html=1;fillColor=#b1ddf0;strokeColor=#10739e;fontFamily=consolas;" vertex="1" parent="Rr48j6R8bM0mg8fOzwoo-1">
          <mxGeometry x="1" y="71" width="158" height="20" as="geometry" />
        </mxCell>
        <mxCell id="F_gYWv8rL4ZoQy9qiymJ-11" value="0x7ffccff275c1" style="rounded=0;whiteSpace=wrap;html=1;fillColor=#b1ddf0;strokeColor=#10739e;fontFamily=consolas;" vertex="1" parent="Rr48j6R8bM0mg8fOzwoo-1">
          <mxGeometry x="1" y="51" width="158" height="20" as="geometry" />
        </mxCell>
        <mxCell id="F_gYWv8rL4ZoQy9qiymJ-12" value="... ..." style="rounded=0;whiteSpace=wrap;html=1;fillColor=#b1ddf0;strokeColor=#10739e;fontFamily=consolas;" vertex="1" parent="Rr48j6R8bM0mg8fOzwoo-1">
          <mxGeometry x="1" y="31" width="158" height="20" as="geometry" />
        </mxCell>
        <mxCell id="F_gYWv8rL4ZoQy9qiymJ-14" value="0x7ffccff275b6" style="rounded=0;whiteSpace=wrap;html=1;fillColor=#b1ddf0;strokeColor=#10739e;fontFamily=consolas;" vertex="1" parent="Rr48j6R8bM0mg8fOzwoo-1">
          <mxGeometry x="1" y="271" width="158" height="20" as="geometry" />
        </mxCell>
        <mxCell id="F_gYWv8rL4ZoQy9qiymJ-15" value="... ..." style="rounded=0;whiteSpace=wrap;html=1;fillColor=#b1ddf0;strokeColor=#10739e;fontFamily=consolas;" vertex="1" parent="Rr48j6R8bM0mg8fOzwoo-1">
          <mxGeometry x="1" y="291" width="158" height="20" as="geometry" />
        </mxCell>
        <mxCell id="F_gYWv8rL4ZoQy9qiymJ-17" style="edgeStyle=orthogonalEdgeStyle;rounded=0;orthogonalLoop=1;jettySize=auto;html=1;" edge="1" parent="1" source="F_gYWv8rL4ZoQy9qiymJ-16" target="F_gYWv8rL4ZoQy9qiymJ-2">
          <mxGeometry relative="1" as="geometry" />
        </mxCell>
        <mxCell id="F_gYWv8rL4ZoQy9qiymJ-16" value="d的第一个字节" style="text;html=1;strokeColor=none;fillColor=none;align=center;verticalAlign=middle;whiteSpace=wrap;rounded=0;" vertex="1" parent="1">
          <mxGeometry x="188" y="386" width="95" height="30" as="geometry" />
        </mxCell>
        <mxCell id="F_gYWv8rL4ZoQy9qiymJ-19" value="" style="shape=curlyBracket;whiteSpace=wrap;html=1;rounded=1;labelPosition=left;verticalLabelPosition=middle;align=right;verticalAlign=middle;size=0.5;" vertex="1" parent="1">
          <mxGeometry x="280" y="251" width="40" height="159" as="geometry" />
        </mxCell>
        <mxCell id="F_gYWv8rL4ZoQy9qiymJ-20" value="因为double型占据8字节空间&lt;br&gt;我们就知道这些都是d对应的空间" style="text;html=1;strokeColor=none;fillColor=none;align=center;verticalAlign=middle;whiteSpace=wrap;rounded=0;" vertex="1" parent="1">
          <mxGeometry x="190" y="285" width="95" height="90" as="geometry" />
        </mxCell>
      </root>
    </mxGraphModel>
  </diagram>
</mxfile>
